<?xml version="1.0" encoding="UTF-8" standalone="no"?>
<svg
   width="16"
   height="16"
   fill="currentColor"
   class="bi bi-send-fill"
   viewBox="0 0 16 16"
   version="1.1"
   id="svg1"
   sodipodi:docname="send.svg"
   inkscape:version="1.3.2 (091e20e, 2023-11-25, custom)"
   xmlns:inkscape="http://www.inkscape.org/namespaces/inkscape"
   xmlns:sodipodi="http://sodipodi.sourceforge.net/DTD/sodipodi-0.dtd"
   xmlns="http://www.w3.org/2000/svg"
   xmlns:svg="http://www.w3.org/2000/svg">
  <defs
     id="defs1" />
  <sodipodi:namedview
     id="namedview1"
     pagecolor="#ffffff"
     bordercolor="#000000"
     borderopacity="0.25"
     inkscape:showpageshadow="2"
     inkscape:pageopacity="0.0"
     inkscape:pagecheckerboard="true"
     inkscape:deskcolor="#d1d1d1"
     inkscape:zoom="65.0625"
     inkscape:cx="8"
     inkscape:cy="5.5408261"
     inkscape:current-layer="svg1" />
  <path
     d="m 15.964472,0.68570483 a 0.5,0.5 0 0 0 -0.65,-0.65 L 0.76747183,5.8547048 h -0.001 l -0.452,0.18 a 0.5,0.5 0 0 0 -0.082,0.887 l 0.41,0.26 0.001,0.002 4.99499997,3.1780002 3.178,4.995 0.002,0.002 0.26,0.41 a 0.5,0.5 0 0 0 0.886,-0.083 z m -1.833,1.88999997 -7.4940002,7.4940002 -0.215,-0.3380002 a 0.5,0.5 0 0 0 -0.154,-0.154 l -0.338,-0.215 7.4940002,-7.494 1.178,-0.471 z"
     id="path1"
     style="fill:#ffffff" />
</svg>
