<?xml version="1.0" encoding="UTF-8"?>
<svg width="550" height="250" version="1.1" viewBox="0 0 5.5 2.5" xmlns="http://www.w3.org/2000/svg">
 <g transform="translate(-1.3731 -1.0965)">
  <g>
   <path d="m3.6231 3.3215h3" stroke="#000" stroke-width=".05"/>
   <path d="m4.6231 1.3715h2" stroke="#000" stroke-width=".05"/>
   <path d="m3.7032 1.3465c-0.1036-1.3e-4 -0.2119 0.00476-0.30073 0.015174-0.028501 0.00334-0.065442 0.014177-0.093489 0.02025-0.10886 0.023568-0.31697 0.10306-0.44407 0.16963-0.10609 0.055566-0.23275 0.14808-0.32253 0.2356l-0.065442 0.063799 0.070117-0.00429c0.089422-0.00546 0.28844 0.00761 0.4075 0.026769l0.092301 0.014846 6e-3 6e-3 -0.24871 0.012837-0.01731 0.00493c-0.00951 0.00272-0.013723 0.00837-0.00935 0.012581l0.00796 0.00765c0.027912 0.00755 0.06512 0.017643 0.093032 0.025198 0.051172 0.013852 0.11217 0.028644 0.13556 0.032885 0.012756 0.00231 0.029607 0.00665 0.042526 0.00773 0.095041 0.00789 0.22543 0.019056 0.31786-0.00442 0.010746-0.00273 0.022905-0.012027 0.032721-0.017182 0.017996-0.00945 0.049049-0.030019 0.069002-0.045704 0.010884-0.00855 0.026467-0.018722 0.036263-0.028503 0.024167-0.024132 0.049336-0.062579 0.070481-0.089398 0.095801-0.12151 0.20945-0.23159 0.29515-0.28587 0.021375-0.01354 0.049872-0.031596 0.071247-0.045137-0.00221-0.00221-0.00462-0.00592-0.00737-0.00738-0.039635-0.020863-0.10225-0.022529-0.14679-0.027309-0.11996-0.012875-0.2814-0.00841-0.402-0.012015 0.039265-0.011447 0.090404-0.032291 0.13088-0.038144 0.17488-0.025284 0.41228-0.00144 0.58898-0.00206l-0.049319-0.010992c-0.027124-0.00604-0.079688-0.015696-0.11681-0.021455-0.020245-0.00314-0.047045-0.00909-0.067486-0.010463-0.053543-0.00359-0.11401-0.00547-0.17617-0.00555zm0.53024 0.10304c-0.094132-0.00152-0.19114 0.014336-0.25488 0.046689-0.07148 0.036282-0.19863 0.15256-0.2581 0.23602-0.022207 0.031169-0.064652 0.10257-0.09431 0.15866l-0.05392 0.10198c0.00959-0.00147 0.022379-0.00344 0.031972-0.00491 0.019361-0.00298 0.050432 0.00184 0.078734 0.012233 0.035323 0.012975 0.061592 0.015905 0.10751 0.011942 0.033922-0.00293 0.087614-0.016472 0.12153-0.030639 0.052414-0.021891 0.060567-0.028522 0.059343-0.048223-4.262e-4 -0.00685-9.984e-4 -0.015972-0.00143-0.022824 0.058426-0.021252 0.13721-0.04731 0.19476-0.070847 0.098347-0.040227 0.22593-0.10211 0.32228-0.1469 0.019-0.00883 0.044171-0.020934 0.063104-0.029909 0.063112-0.029915 0.063112-0.029907 0.04479-0.055636-0.026146-0.036723-0.10927-0.09863-0.16398-0.12212-0.052721-0.022634-0.12419-0.034333-0.1974-0.035515zm-0.42285 0.39081c0.076532 2.14e-5 0.15184 0.046772 0.12254 0.07607l-0.011156 0.011157-0.17359-0.00263-0.014023 0.00899c-0.034487 0.022062-0.058056-0.00356-0.037907-0.041212 0.017975-0.033586 0.058933-0.052384 0.11414-0.052368zm0.91173 0.1041c-0.025216 0.00105-0.056007 0.027989-0.084614 0.077621-0.00656 0.011389-0.016257 0.026096-0.021875 0.03798-0.036335 0.076872-0.069929 0.18565-0.099897 0.26522-0.00575 0.00155-0.01342 0.00361-0.019172 0.00516-0.010546 0.00283-0.031802 0.00522-0.047238 0.0053-0.00842 3.73e-5 -0.019646 9.34e-5 -0.028065 1.28e-4l-0.11217 0.047733c-0.061692 0.026266-0.17217 0.068304-0.2455 0.093414-0.23133 0.079216-0.335 0.14152-0.41188 0.24753l-0.043074 0.05938-0.00722-0.011339c-0.00396-0.00625-0.00728-0.036887-0.00736-0.06809-2.015e-4 -0.084359-0.022257-0.14719-0.06837-0.19481-0.046834-0.048362-0.0942-0.059273-0.18544-0.042727-0.073433 0.013316-0.13164 0.042637-0.19081 0.0961-0.084751 0.076578-0.11895 0.15673-0.17053 0.39972-0.030889 0.14552-0.036291 0.15409-0.11118 0.1765-0.16755 0.050118-0.47844 0.050278-0.69209 3.467e-4 -0.10368-0.024231-0.20425-0.064252-0.31359-0.1248l-0.091151-0.050488v0.021784l0.053756 0.067377c0.029565 0.037056 0.076291 0.084297 0.10384 0.10497 0.11584 0.086936 0.32658 0.15905 0.52954 0.18121 0.011219 0.00122 0.026123 0.00357 0.037396 0.00409 0.1289 0.00592 0.30133 0.00178 0.43005-0.00729 0.032421-0.00228 0.075258-0.00936 0.10751-0.013366 0.15403-0.019137 0.23246-0.050539 0.33526-0.1343 0.012234-0.00997 0.028936-0.022797 0.040774-0.033232 0.034285-0.030224 0.077201-0.073569 0.11029-0.1051 0.17457-0.16638 0.32503-0.28701 0.44809-0.35924 0.015286-0.00898 0.035274-0.021659 0.050962-0.029909 0.041243-0.021688 0.098479-0.046066 0.14069-0.065807 0.21457-0.10036 0.29542-0.12858 0.39431-0.13769 0.10235-0.00943 0.12586-0.022608 0.15652-0.087828 0.045724-0.097248 0.061992-0.16983 0.061845-0.27586l-1.28e-4 -0.099514-0.011796-0.023372c-0.00944-0.01872-0.022557-0.027417-0.037687-0.026787zm-0.017109 0.087134 0.00324 3.104e-4c0.0053 4.998e-4 0.010617 0.00245 0.0149 0.00545l0.00233 0.00164 4.021e-4 7.486e-4 -0.00156 0.0072-0.00409 0.019082-0.00227 0.010755-0.00547 0.0256-0.00109 0.00514-0.00657 0.030731-0.00168 0.00793c-9.334e-4 0.00435-0.00246 0.011482-0.00339 0.01583l-0.0017 0.00791-0.053609-0.097579 1.458e-4 -2.922e-4 0.00286-0.00362c0.013154-0.016487 0.026546-0.027592 0.040006-0.033178 0.00553-0.00229 0.010062-0.00332 0.015813-0.00358zm0.025162 0.011759 2.009e-4 1.278e-4 0.00128 0.00131c6.993e-4 7.269e-4 0.00214 0.00245 0.00324 0.00383l0.00198 0.00253 0.00611 0.011157 0.00148 0.00378c0.00984 0.025082 0.013291 0.058477 0.010043 0.097268l-5.843e-4 0.00703-0.00173 0.00181-0.01585 0.015739-0.021564 0.021473-0.00597 0.00593c-0.00328 0.00326-0.00897 0.00893-0.012616 0.012581l-0.00665 0.00663-4.384e-4 2.916e-4 0.00184-0.00873 0.00478-0.022349 0.00249-0.01165 0.00646-0.030274 0.00468-0.021894 0.0015-0.00699c8.19e-4 -0.00385 0.00228-0.010656 0.00324-0.015137l0.00173-0.00816 0.00588-0.02748 0.00765-0.03588 3.29e-4 -0.00152c2.394e-4 -0.00112 3.805e-4 -0.00151 5.292e-4 -0.00143zm-0.091315 0.036866 0.036464 0.066611-1.645e-4 3.291e-4 -0.02213 0.022075-0.00769 0.00766c-0.00422 0.00421-0.010878 0.010839-0.01479 0.014735-0.00392 0.0039-0.010582 0.010523-0.014809 0.014736l-0.00766 0.00766-0.020651 0.020559-0.00606 0.00608-1.094e-4 -2.552e-4 4.385e-4 -0.00316c0.0048-0.034291 0.014298-0.069109 0.027682-0.10147l0.00206-0.00498 0.011448-0.024139 0.00245-0.00443c0.00306-0.00559 0.00693-0.012072 0.00991-0.016653l0.00229-0.00354zm0.11352 0.10174c1.233e-4 6.55e-5 5.6e-5 4.928e-4 -5.61e-5 0.00135l-2.189e-4 0.00172-8.946e-4 0.00583c-0.0042 0.027194-0.011858 0.056345-0.021839 0.083153-0.00874 0.023467-0.019049 0.044306-0.031698 0.064072-0.00158 0.00246-0.00228 0.00338-0.0029 0.00376l-8.405e-4 5.114e-4 -0.036392-0.066136 6.395e-4 -8.395e-4 0.00769-0.00759 0.016525-0.016434 0.012617-0.012563 0.00575-0.0057 0.00919-0.00913 0.012636-0.012562 0.00732-0.00731 0.00551-0.00549c0.00303-0.00301 0.00758-0.00752 0.010115-0.010025l0.00461-0.00455 0.0012-0.0012c6.086e-4 -6.03e-4 9.155e-4 -9.244e-4 0.00104-8.582e-4zm-0.10857 0.00637 1.28e-4 2.188e-4 -0.00447 0.02129-0.00379 0.017675c-0.00208 0.00972-0.00545 0.025428-0.00749 0.034893l-0.00371 0.0172-0.00608 0.028394-0.00379 0.017675c-0.00208 0.00973-0.00549 0.025632-0.00757 0.03535l-0.00379 0.017676-2.011e-4 9.34e-5 -0.00354-0.00389-0.00971-0.017346-2.738e-4 -7.489e-4c-1.506e-4 -4.151e-4 -6.76e-4 -0.0018-0.00117-0.00309-0.00384-0.01002-0.00697-0.023677-0.00849-0.036975l-3.655e-4 -0.00324-5.478e-4 -0.0067c-9.244e-4 -0.011501-0.00114-0.022859-6.572e-4 -0.034528 2.309e-4 -0.00563 7.955e-4 -0.013312 0.00126-0.017054l4.198e-4 -0.00338 0.016908-0.016872 0.013767-0.013713 0.025472-0.025362zm-0.00865 0.064474 0.053664 0.098017-1.28e-4 2.553e-4 -0.0032 0.00379c-0.018649 0.022182-0.036094 0.034049-0.052405 0.035624-0.00152 1.467e-4 -0.00356 2.244e-4 -0.00453 1.823e-4l-0.00175-7.48e-5 -0.00309-5.291e-4c-0.00567-9.792e-4 -0.014753-0.00507-0.015904-0.00718-1.673e-4 -3.058e-4 -3.028e-4 -9.065e-4 -2.916e-4 -0.00133l1.87e-5 -7.853e-4 0.00822-0.038089 0.01249-0.058139 0.00676-0.031443zm-1.4985 0.092397-0.10559 0.037779c-0.058078 0.020777-0.1687 0.054583-0.24583 0.07512-0.077128 0.020537-0.21911 0.062558-0.31552 0.093397-0.052587 0.016822-0.1227 0.039254-0.17529 0.056075v0.00436c0 0.00241 0.014913 0.00438 0.033141 0.00438h0.033141l0.29748-0.07479h0.00688c0.00379 0-0.0013 0.00596-0.011266 0.013256-0.00997 0.0073-0.015036 0.016334-0.011267 0.020103l0.00684 0.00686c0.032997-0.01057 0.076997-0.024672 0.11-0.035241 0.060495-0.019377 0.15735-0.053529 0.21524-0.075886 0.031577-0.012196 0.073688-0.028451 0.10527-0.040645l0.012745 0.0049c0.012069 0.00463 0.08058-0.065104 0.08058-0.082022 0-0.00421-0.00823-0.00765-0.018277-0.00765zm0.24232 0.21984c0.00341-6e-6 0.00692 9.36e-5 0.010627 2.918e-4l0.00445 2.552e-4 0.00833 0.00124c0.013622 0.00204 0.027272 0.00665 0.038217 0.012892l6e-3 0.00341 0.00101 0.00137-0.00421 0.012307-0.01112 0.032648-0.00615 0.018406-0.0149 0.043786-0.00297 0.00876-0.017857 0.05257-0.00459 0.013567c-0.00252 0.00746-0.00667 0.01964-0.00921 0.027079l-0.00461 0.013531-0.13521-0.18332 3.656e-4 -4.927e-4 0.00754-0.00572c0.034385-0.026079 0.069177-0.04263 0.10402-0.049483 0.010734-0.00211 0.020013-0.00309 0.030237-0.0031zm0.07952 0.026749 5.291e-4 2.552e-4 0.00324 0.00261c0.00178 0.00143 0.00548 0.00478 0.00824 0.00745l5e-3 0.00486 0.015374 0.020943 0.00369 0.00696c0.024588 0.046246 0.032467 0.10571 0.022934 0.17317l-0.00173 0.012198-0.00448 0.00281-0.041303 0.024194-0.056221 0.032976-0.015557 0.00911c-0.00855 0.00502-0.023361 0.013701-0.032885 0.019318l-0.01731 0.010225-0.00115 4.02e-4 5e-3 -0.014955 0.013001-0.038199 0.00676-0.019939 0.017566-0.051802 0.012708-0.037431 0.00406-0.01196c0.00223-0.00658 0.00617-0.018228 0.00878-0.025891l0.00473-0.013951 0.015959-0.047 0.020797-0.06137 8.947e-4 -0.00261c6.516e-4 -0.00192 0.00103-0.00255 0.00141-0.00237zm-1.8078 0.00143c-0.012876 7.265e-4 -0.020251 0.00903-0.025052 0.024157-0.014249 0.044895 0.028576 0.14062 0.10486 0.23438 0.069386 0.085277 0.13838 0.12827 0.26944 0.16793 0.033067 0.010007 0.076271 0.015776 0.10525 0.014041 0.036399-0.00218 0.055418-0.00881 0.07333-0.025546 0.068655-0.06414 0.066301-0.14959-0.00513-0.18586-0.018276-0.00928-0.066662-0.026235-0.10754-0.037668-0.09941-0.027811-0.22361-0.082515-0.2912-0.12828-0.06574-0.04451-0.1025-0.064371-0.12396-0.06316zm1.5714 0.043238 0.091955 0.1251-4.198e-4 5.666e-4 -0.057682 0.033926-0.02003 0.011759c-0.011017 0.00647-0.028386 0.016675-0.038582 0.02266-0.010196 0.00599-0.027549 0.016168-0.038564 0.022642l-0.020031 0.011777-0.053811 0.031589-0.015794 0.00937-2.739e-4 -4.927e-4 0.00122-0.00544c0.013403-0.059206 0.038936-0.1183 0.07439-0.17222l0.00545-0.00831 0.030219-0.039915 0.00641-0.00725c0.00806-0.00914 0.018223-0.019704 0.026055-0.027097l0.00606-0.00573zm-0.97679 0.00793c-0.014969-5.61e-5 -0.00716 0.096493 0.00928 0.11465 0.015024 0.016601 0.024973 0.017493 0.12855 0.011522 0.19279-0.011116 0.36286-0.051848 0.39919-0.095625 0.010392-0.012521 0.00947-0.013746-0.00654-0.00873l-0.018625 0.00583c-0.030851 0.0071-0.071986 0.016596-0.10284 0.0237-0.12024 0.027695-0.22981 0.037035-0.30851 0.026312-0.052235-0.00711-0.057378-0.010049-0.07479-0.042635-0.010283-0.019248-0.021854-0.035008-0.025709-0.035022zm0.98632 0.18322 2.74e-4 3.833e-4 -0.012161 0.036427-0.010299 0.030237c-0.00566 0.016632-0.01482 0.043484-0.02034 0.059672l-0.010043 0.029434-0.016544 0.048534-0.010299 0.030256c-0.00566 0.016633-0.014941 0.043838-0.020615 0.060457l-0.010316 0.030218-4.927e-4 1.281e-4 -0.00904-0.00765-0.024486-0.032593-6.759e-4 -0.00139c-3.749e-4 -7.638e-4 -0.00169-0.00331-0.00293-0.00568-0.0096-0.018454-0.017279-0.043161-0.020779-0.066866l-8.395e-4 -0.00575-0.00118-0.011905c-0.00204-0.020415-0.00228-0.040398-6.936e-4 -0.060804 7.648e-4 -0.00985 0.00245-0.023233 0.00376-0.029708l0.00118-0.00586 0.044097-0.025891 0.03588-0.021071 0.066373-0.038985zm0.27988 0.01269c3.161e-4 1.393e-4 1.562e-4 8.899e-4 -1.645e-4 0.00237l-6.395e-4 0.00297-0.00251 0.010006c-0.011635 0.046867-0.032221 0.096427-0.058741 0.14135-0.023215 0.03932-0.050409 0.073677-0.083592 0.10563-0.00414 0.00398-0.00597 0.00541-0.00761 0.00595l-0.00215 7.124e-4 -0.091791-0.12422 0.0017-0.00132 0.020031-0.011668 0.043074-0.025271 0.032885-0.019282 0.01499-0.00876 0.023919-0.014024 0.032904-0.019301 0.019137-0.011229 0.014352-0.00842c0.0079-0.00463 0.019758-0.011565 0.026348-0.015411l0.011978-0.00699 0.00318-0.00184c0.00158-9.244e-4 0.00239-0.0014 0.0027-0.00126zm-0.30415 0.09871 0.13532 0.18406-3.281e-4 4.197e-4 -0.00834 0.00597c-0.048712 0.034878-0.094057 0.051877-0.13612 0.051054-0.00393-7.48e-5 -0.00916-3.721e-4 -0.01165-6.572e-4l-0.00452-5.245e-4 -0.00796-0.00162c-0.014583-0.00297-0.037853-0.012159-0.040754-0.016105-4.226e-4 -5.749e-4 -7.34e-4 -0.00166-6.937e-4 -0.00241l7.47e-5 -0.00135 0.022313-0.065131 0.033925-0.099441 0.018351-0.053774zm-0.4813 0.010097c-0.08065 7.563e-4 -0.17064 0.022882-0.24002 0.035624-0.017629 0.00324-0.039919 0.012487-0.057025 0.01784-0.055319 0.01731-0.12774 0.059971-0.15254 0.089855-0.010412 0.012544-0.00846 0.016052 0.013531 0.024413 0.014131 0.00538 0.04718 0.01365 0.073458 0.018387 0.014333 0.00258 0.033256 0.00762 0.047785 0.00861 0.034606 0.00239 0.080868-0.00329 0.11553-0.00471 0.13262-0.00541 0.19144-0.022647 0.25087-0.073512 0.03683-0.031525 0.067312-0.083895 0.055636-0.09557-0.00176-0.00176-0.00351-0.00496-0.00585-0.00585-0.029976-0.011376-0.064717-0.015446-0.10137-0.015101z"/>
  </g>
  <path d="m3.9645 3.0913v-0.27993h0.10315q0.057217 0 0.091875 0.040605 0.034658 0.0404 0.034658 0.099873t-0.035684 0.099463-0.10213 0.03999zm0.051885-0.041221h0.042041q0.033838 0 0.057422-0.02543t0.023584-0.075674q0-0.041016-0.020713-0.069316-0.020508-0.028506-0.054346-0.028506h-0.047988zm0.41646 0.041221h-0.1819v-0.27993h0.18006v0.041631h-0.12961v0.075879h0.10418v0.040605h-0.10418v0.07834h0.13146zm0.27312 0h-0.053936l-0.022353-0.06665h-0.10767l-0.021943 0.06665h-0.043066l0.0929-0.27993h0.062139zm-0.089824-0.10705-0.04081-0.12489-0.040811 0.12489zm0.30572 0.10705h-0.17227v-0.27993h0.053115v0.2342h0.11915zm0.22902 0h-0.1819v-0.27993h0.18006v0.041631h-0.12961v0.075879h0.10418v0.040605h-0.10418v0.07834h0.13146zm0.27168 0h-0.05332l-0.043477-0.11505h-0.070957v0.11505h-0.050449v-0.27993h0.12141q0.050654 0 0.074443 0.022969 0.023789 0.022764 0.023789 0.059063 0 0.053935-0.050449 0.074238zm-0.16775-0.15545h0.062754q0.027275 0 0.040605-0.011484t0.01333-0.031582q0-0.018457-0.013125-0.029736-0.013125-0.011484-0.036709-0.011484h-0.066855zm0.52634 0.15545h-0.1819v-0.27993h0.18006v0.041631h-0.12961v0.075879h0.10418v0.040605h-0.10418v0.07834h0.13146zm0.26491 0h-0.049014l-0.10623-0.17883q-0.00246-0.0041-8e-3 -0.01333-0.00246-0.0041-0.00759-0.01292v0.20508h-0.040601v-0.27993h0.055781l0.098027 0.16488q0.00123 0.00205 0.017842 0.030146v-0.19503h0.039785zm0.17919 0h-0.05127l-0.086337-0.27993h0.05332l0.064189 0.21451 0.065625-0.21451h0.042041zm0.24194 0h-0.053525v-0.11812l-0.095361-0.16181h0.061113l0.066445 0.11546 0.063574-0.11546h0.048398l-0.090644 0.16181z" stroke-width=".010417" aria-label="DEALER ENVY"/>
  <path d="m5.0038 2.4681 0.14473-0.86646h0.25518q0.13457 0 0.20884 0.042529 0.074902 0.041894 0.12505 0.13521 0.050147 0.092676 0.050147 0.21772 0 0.1168-0.042529 0.21836-0.042529 0.10093-0.11299 0.16187-0.070459 0.060938-0.14219 0.076807-0.071094 0.015869-0.18345 0.015869zm0.21646-0.15425h0.1041q0.15742 0 0.20884-0.10474 0.051416-0.10537 0.051416-0.22534 0-0.22915-0.18218-0.22915h-0.088867zm1.3376-0.71221-0.02793 0.1644h-0.40688l-0.029834 0.17773h0.34023l-0.026025 0.15679h-0.34087l-0.033643 0.20312h0.4145l-0.02793 0.1644h-0.61699l0.14473-0.86646z" stroke-width=".010417" aria-label="DE"/>
 </g>
</svg>
