<?xml version="1.0" encoding="UTF-8" standalone="no"?>
<svg
   width="16"
   height="16"
   fill="currentColor"
   class="bi bi-badge-4k-fill"
   viewBox="0 0 16 16"
   version="1.1"
   id="svg2"
   sodipodi:docname="4k.svg"
   inkscape:version="1.3.2 (091e20e, 2023-11-25, custom)"
   xmlns:inkscape="http://www.inkscape.org/namespaces/inkscape"
   xmlns:sodipodi="http://sodipodi.sourceforge.net/DTD/sodipodi-0.dtd"
   xmlns="http://www.w3.org/2000/svg"
   xmlns:svg="http://www.w3.org/2000/svg">
  <defs
     id="defs2" />
  <sodipodi:namedview
     id="namedview2"
     pagecolor="#ffffff"
     bordercolor="#000000"
     borderopacity="0.25"
     inkscape:showpageshadow="2"
     inkscape:pageopacity="0.0"
     inkscape:pagecheckerboard="true"
     inkscape:deskcolor="#d1d1d1"
     inkscape:zoom="51.839766"
     inkscape:cx="11.660932"
     inkscape:cy="8.9024322"
     inkscape:window-width="3440"
     inkscape:window-height="1369"
     inkscape:window-x="-8"
     inkscape:window-y="108"
     inkscape:window-maximized="1"
     inkscape:current-layer="svg2" />
  <path
     d="M3.577 8.9v.03h1.828V5.898h-.062a47 47 0 0 0-1.766 3.001z"
     id="path1"
     style="fill:#ffffff" />
  <path
     d="M2 2a2 2 0 0 0-2 2v8a2 2 0 0 0 2 2h12a2 2 0 0 0 2-2V4a2 2 0 0 0-2-2zm2.372 3.715.435-.714h1.71v3.93h.733v.957h-.733V11H5.405V9.888H2.5v-.971c.574-1.077 1.225-2.142 1.872-3.202m7.73-.714h1.306l-2.14 2.584L13.5 11h-1.428l-1.679-2.624-.615.7V11H8.59V5.001h1.187v2.686h.057L12.102 5z"
     id="path2"
     style="fill:#ffffff" />
</svg>
